<svg id="visual" viewBox="0 0 900 600" width="900" height="600" xmlns="http://www.w3.org/2000/svg" xmlns:xlink="http://www.w3.org/1999/xlink" version="1.1"><rect x="0" y="0" width="900" height="600" fill="#f5b921"></rect><defs><linearGradient id="grad1_0" x1="33.3%" y1="100%" x2="100%" y2="0%"><stop offset="20%" stop-color="#f5b921" stop-opacity="1"></stop><stop offset="80%" stop-color="#f5b921" stop-opacity="1"></stop></linearGradient></defs><defs><linearGradient id="grad2_0" x1="0%" y1="100%" x2="66.7%" y2="0%"><stop offset="20%" stop-color="#f5b921" stop-opacity="1"></stop><stop offset="80%" stop-color="#f5b921" stop-opacity="1"></stop></linearGradient></defs><g transform="translate(900, 600)"><path d="M-486.7 0C-474.8 -86.5 -462.8 -172.9 -421.5 -243.4C-380.3 -313.8 -309.6 -368.3 -234.5 -406.2C-159.4 -444.1 -79.7 -465.4 0 -486.7L0 0Z" fill="#1f5156"></path></g><g transform="translate(0, 0)"><path d="M486.7 0C462.6 78.1 438.5 156.2 401 231.5C363.4 306.8 312.4 379.5 243.4 421.5C174.3 463.6 87.2 475.2 0 486.7L0 0Z" fill="#1f5156"></path></g></svg>