<svg id="visual" viewBox="0 0 900 600" width="900" height="600" xmlns="http://www.w3.org/2000/svg" xmlns:xlink="http://www.w3.org/1999/xlink" version="1.1"><rect width="900" height="600" fill="#1f5156"></rect><g><g transform="translate(878 11)"><path d="M88.2 -31C99.7 6.6 84.2 50.7 51.6 75.5C18.9 100.3 -31.1 105.9 -60.2 84.4C-89.3 62.9 -97.6 14.2 -84.1 -26.2C-70.6 -66.6 -35.3 -98.7 1.5 -99.2C38.4 -99.7 76.7 -68.6 88.2 -31Z" fill="#ffdd40"></path></g><g transform="translate(88 385)"><path d="M78.6 -28.9C89 6.2 75.4 45.7 46.2 67.9C17 90.2 -27.8 95.1 -57.1 74.8C-86.4 54.4 -100 8.7 -87.9 -28.8C-75.8 -66.4 -37.9 -95.8 -1.9 -95.2C34.2 -94.6 68.3 -64 78.6 -28.9Z" fill="#ffdd40"></path></g><g transform="translate(316 79)"><path d="M64.4 -19.1C73.1 5.7 62.5 38.6 41.3 53.1C20.1 67.6 -11.8 63.8 -34.8 47.2C-57.9 30.7 -72.2 1.3 -64.9 -21.6C-57.6 -44.4 -28.8 -60.8 -0.5 -60.6C27.9 -60.5 55.8 -43.8 64.4 -19.1Z" fill="#ffdd40"></path></g><g transform="translate(814 496)"><path d="M33.5 -11.7C38.1 3.4 32.9 20.8 20.9 29.7C8.9 38.7 -9.9 39.2 -23 30C-36.1 20.9 -43.4 2.2 -38.6 -13.1C-33.8 -28.5 -16.9 -40.5 -1.2 -40.1C14.4 -39.7 28.8 -26.9 33.5 -11.7Z" fill="#ffdd40"></path></g><g transform="translate(478 307)"><path d="M44.5 -14C49.9 2.2 41.2 23.5 26.4 33.8C11.5 44 -9.6 43.1 -25.2 32.4C-40.7 21.6 -50.8 0.9 -45.6 -14.9C-40.5 -30.8 -20.3 -41.8 -0.4 -41.7C19.5 -41.6 39.1 -30.3 44.5 -14Z" fill="#ffdd40"></path></g><g transform="translate(526 583)"><path d="M76.5 -22C89.1 13.9 82.3 58.9 55 79.7C27.7 100.6 -20.2 97.1 -50.9 73.9C-81.6 50.7 -95.2 7.7 -83.8 -26.5C-72.5 -60.7 -36.2 -86 -2.1 -85.3C32 -84.6 63.9 -57.9 76.5 -22Z" fill="#ffdd40"></path></g></g></svg>